<svg width="76" height="72" fill="none" xmlns="http://www.w3.org/2000/svg"><path d="M30.1 65h16V41.2h-16V65zm3-20.9h10v18h-10v-18z" fill="#83B3D3"/><path d="M73.4 39.3l2.1-2.1-10-9.9V0H51.7v13.6L37.9 0 .5 37.2l2.1 2.1 7.8-7.8v37.6h-4V72h64.2v-2.9h-5.1V31.5l7.9 7.8zM62.5 69.1H13.4V28.5L37.9 4.1l24.6 24.4v40.6zm0-44.7l-7.9-7.9V2.9h8v21.5z" fill="#83B3D3"/><path d="M30.3 27.1c0 4.3 3.5 7.7 7.8 7.7s7.8-3.5 7.8-7.7c0-4.3-3.5-7.7-7.8-7.7a7.7 7.7 0 0 0-7.8 7.7zm7.9-5a5 5 0 0 1 5 4.9 5 5 0 0 1-5 4.9 5 5 0 0 1-5-4.9 5 5 0 0 1 5-4.9zM20.5 41.2h-3v3.9h3v-3.9zM26.4 41.2h-3v3.9h3v-3.9zM20.5 47.2h-3v3.9h3v-3.9zM26.4 47.2h-3v3.9h3v-3.9zM52.5 41.2h-3v3.9h3v-3.9zM58.4 41.2h-3v3.9h3v-3.9zM52.5 47.2h-3v3.9h3v-3.9zM58.4 47.2h-3v3.9h3v-3.9z" fill="#83B3D3"/></svg>